<svg viewBox="0 0 800 600" xmlns="http://www.w3.org/2000/svg">
  <!-- Background -->
  <rect width="800" height="600" fill="#f8fafc"/>
  
  <!-- Title -->
  <text x="400" y="40" text-anchor="middle" font-family="system-ui, sans-serif" font-size="24" font-weight="600" fill="#1e293b">BodyMetrics Icons</text>
  
  <!-- Dashboard Icon -->
  <g transform="translate(80, 80)">
    <text x="40" y="-10" text-anchor="middle" font-family="system-ui, sans-serif" font-size="14" fill="#64748b">Dashboard</text>
    <rect x="10" y="10" width="60" height="60" rx="8" fill="none" stroke="#2563eb" stroke-width="2"/>
    <rect x="20" y="20" width="15" height="15" rx="2" fill="#2563eb"/>
    <rect x="40" y="20" width="20" height="15" rx="2" fill="#10b981"/>
    <rect x="20" y="40" width="25" height="15" rx="2" fill="#f59e0b"/>
    <rect x="50" y="40" width="10" height="15" rx="2" fill="#8b5cf6"/>
    <rect x="20" y="60" width="40" height="3" rx="1.5" fill="#e2e8f0"/>
  </g>
  
  <!-- Add Entry Icon -->
  <g transform="translate(200, 80)">
    <text x="40" y="-10" text-anchor="middle" font-family="system-ui, sans-serif" font-size="14" fill="#64748b">Add Entry</text>
    <circle cx="40" cy="40" r="30" fill="none" stroke="#2563eb" stroke-width="2"/>
    <line x1="40" y1="25" x2="40" y2="55" stroke="#2563eb" stroke-width="3" stroke-linecap="round"/>
    <line x1="25" y1="40" x2="55" y2="40" stroke="#2563eb" stroke-width="3" stroke-linecap="round"/>
  </g>
  
  <!-- Charts Icon -->
  <g transform="translate(320, 80)">
    <text x="40" y="-10" text-anchor="middle" font-family="system-ui, sans-serif" font-size="14" fill="#64748b">Charts</text>
    <rect x="10" y="10" width="60" height="60" rx="8" fill="none" stroke="#2563eb" stroke-width="2"/>
    <polyline points="20,55 30,45 40,35 50,25 60,20" fill="none" stroke="#10b981" stroke-width="3" stroke-linecap="round" stroke-linejoin="round"/>
    <circle cx="20" cy="55" r="2" fill="#10b981"/>
    <circle cx="30" cy="45" r="2" fill="#10b981"/>
    <circle cx="40" cy="35" r="2" fill="#10b981"/>
    <circle cx="50" cy="25" r="2" fill="#10b981"/>
    <circle cx="60" cy="20" r="2" fill="#10b981"/>
  </g>
  
  <!-- Profile Icon -->
  <g transform="translate(440, 80)">
    <text x="40" y="-10" text-anchor="middle" font-family="system-ui, sans-serif" font-size="14" fill="#64748b">Profile</text>
    <circle cx="40" cy="30" r="10" fill="none" stroke="#2563eb" stroke-width="2"/>
    <path d="M20 60 Q20 45 40 45 Q60 45 60 60" fill="none" stroke="#2563eb" stroke-width="2"/>
  </g>
  
  <!-- Scale Icon -->
  <g transform="translate(560, 80)">
    <text x="40" y="-10" text-anchor="middle" font-family="system-ui, sans-serif" font-size="14" fill="#64748b">Scale</text>
    <rect x="15" y="45" width="50" height="20" rx="10" fill="none" stroke="#2563eb" stroke-width="2"/>
    <rect x="20" y="20" width="40" height="25" rx="4" fill="none" stroke="#2563eb" stroke-width="2"/>
    <text x="40" y="37" text-anchor="middle" font-family="system-ui, sans-serif" font-size="10" fill="#2563eb">kg</text>
  </g>
  
  <!-- Weight Icon -->
  <g transform="translate(80, 200)">
    <text x="40" y="-10" text-anchor="middle" font-family="system-ui, sans-serif" font-size="14" fill="#64748b">Weight</text>
    <circle cx="40" cy="35" r="20" fill="none" stroke="#2563eb" stroke-width="2"/>
    <text x="40" y="42" text-anchor="middle" font-family="system-ui, sans-serif" font-size="12" font-weight="600" fill="#2563eb">W</text>
    <rect x="35" y="55" width="10" height="8" fill="#2563eb"/>
  </g>
  
  <!-- Body Fat Icon -->
  <g transform="translate(200, 200)">
    <text x="40" y="-10" text-anchor="middle" font-family="system-ui, sans-serif" font-size="14" fill="#64748b">Body Fat</text>
    <circle cx="40" cy="40" r="25" fill="none" stroke="#f59e0b" stroke-width="2"/>
    <circle cx="40" cy="40" r="15" fill="#f59e0b" opacity="0.3"/>
    <text x="40" y="46" text-anchor="middle" font-family="system-ui, sans-serif" font-size="10" font-weight="600" fill="#f59e0b">%</text>
  </g>
  
  <!-- Muscle Icon -->
  <g transform="translate(320, 200)">
    <text x="40" y="-10" text-anchor="middle" font-family="system-ui, sans-serif" font-size="14" fill="#64748b">Muscle</text>
    <path d="M25 25 Q40 15 55 25 Q50 40 40 40 Q30 40 25 25" fill="none" stroke="#10b981" stroke-width="2"/>
    <path d="M30 45 Q40 35 50 45 Q45 55 40 55 Q35 55 30 45" fill="none" stroke="#10b981" stroke-width="2"/>
  </g>
  
  <!-- Water Icon -->
  <g transform="translate(440, 200)">
    <text x="40" y="-10" text-anchor="middle" font-family="system-ui, sans-serif" font-size="14" fill="#64748b">Water</text>
    <path d="M40 15 Q50 25 50 35 Q50 50 40 50 Q30 50 30 35 Q30 25 40 15" fill="none" stroke="#06b6d4" stroke-width="2"/>
    <circle cx="35" cy="35" r="2" fill="#06b6d4" opacity="0.6"/>
    <circle cx="42" cy="30" r="1.5" fill="#06b6d4" opacity="0.4"/>
  </g>
  
  <!-- Bone Icon -->
  <g transform="translate(560, 200)">
    <text x="40" y="-10" text-anchor="middle" font-family="system-ui, sans-serif" font-size="14" fill="#64748b">Bone</text>
    <rect x="30" y="35" width="20" height="4" rx="2" fill="#64748b"/>
    <circle cx="25" cy="37" r="5" fill="none" stroke="#64748b" stroke-width="2"/>
    <circle cx="55" cy="37" r="5" fill="none" stroke="#64748b" stroke-width="2"/>
    <circle cx="25" cy="37" r="2" fill="#64748b"/>
    <circle cx="55" cy="37" r="2" fill="#64748b"/>
  </g>
  
  <!-- Export Icon -->
  <g transform="translate(80, 320)">
    <text x="40" y="-10" text-anchor="middle" font-family="system-ui, sans-serif" font-size="14" fill="#64748b">Export</text>
    <rect x="20" y="20" width="40" height="50" rx="4" fill="none" stroke="#2563eb" stroke-width="2"/>
    <line x1="30" y1="30" x2="50" y2="30" stroke="#2563eb" stroke-width="1"/>
    <line x1="30" y1="40" x2="45" y2="40" stroke="#2563eb" stroke-width="1"/>
    <line x1="30" y1="50" x2="50" y2="50" stroke="#2563eb" stroke-width="1"/>
    <path d="M40 15 L35 25 L45 25 Z" fill="#10b981"/>
  </g>
  
  <!-- Import Icon -->
  <g transform="translate(200, 320)">
    <text x="40" y="-10" text-anchor="middle" font-family="system-ui, sans-serif" font-size="14" fill="#64748b">Import</text>
    <rect x="20" y="20" width="40" height="50" rx="4" fill="none" stroke="#2563eb" stroke-width="2"/>
    <line x1="30" y1="30" x2="50" y2="30" stroke="#2563eb" stroke-width="1"/>
    <line x1="30" y1="40" x2="45" y2="40" stroke="#2563eb" stroke-width="1"/>
    <line x1="30" y1="50" x2="50" y2="50" stroke="#2563eb" stroke-width="1"/>
    <path d="M40 65 L35 55 L45 55 Z" fill="#f59e0b"/>
  </g>
  
  <!-- Settings Icon -->
  <g transform="translate(320, 320)">
    <text x="40" y="-10" text-anchor="middle" font-family="system-ui, sans-serif" font-size="14" fill="#64748b">Settings</text>
    <circle cx="40" cy="40" r="25" fill="none" stroke="#2563eb" stroke-width="2"/>
    <circle cx="40" cy="40" r="8" fill="none" stroke="#2563eb" stroke-width="2"/>
    <line x1="40" y1="15" x2="40" y2="25" stroke="#2563eb" stroke-width="2"/>
    <line x1="40" y1="55" x2="40" y2="65" stroke="#2563eb" stroke-width="2"/>
    <line x1="55" y1="32" x2="62" y2="25" stroke="#2563eb" stroke-width="2"/>
    <line x1="18" y1="55" x2="25" y2="48" stroke="#2563eb" stroke-width="2"/>
  </g>
  
  <!-- Delete/Clear Icon -->
  <g transform="translate(440, 320)">
    <text x="40" y="-10" text-anchor="middle" font-family="system-ui, sans-serif" font-size="14" fill="#64748b">Delete</text>
    <rect x="25" y="25" width="30" height="35" rx="3" fill="none" stroke="#dc2626" stroke-width="2"/>
    <line x1="20" y1="25" x2="60" y2="25" stroke="#dc2626" stroke-width="2"/>
    <line x1="35" y1="20" x2="45" y2="20" stroke="#dc2626" stroke-width="2"/>
    <line x1="35" y1="35" x2="35" y2="50" stroke="#dc2626" stroke-width="1"/>
    <line x1="45" y1="35" x2="45" y2="50" stroke="#dc2626" stroke-width="1"/>
  </g>
  
  <!-- Trend Up Icon -->
  <g transform="translate(560, 320)">
    <text x="40" y="-10" text-anchor="middle" font-family="system-ui, sans-serif" font-size="14" fill="#64748b">Trend Up</text>
    <polyline points="15,55 25,45 35,40 45,30 55,20 65,15" fill="none" stroke="#10b981" stroke-width="3" stroke-linecap="round"/>
    <path d="M60 15 L55 25 L65 25 Z" fill="#10b981"/>
  </g>
  
  <!-- App Logo -->
  <g transform="translate(300, 450)">
    <text x="100" y="-10" text-anchor="middle" font-family="system-ui, sans-serif" font-size="16" font-weight="600" fill="#64748b">BodyMetrics Logo</text>
    <rect x="50" y="20" width="100" height="80" rx="12" fill="#2563eb"/>
    <text x="100" y="45" text-anchor="middle" font-family="system-ui, sans-serif" font-size="16" font-weight="700" fill="white">BM</text>
    <rect x="70" y="55" width="60" height="3" rx="1.5" fill="white" opacity="0.7"/>
    <rect x="70" y="65" width="45" height="3" rx="1.5" fill="white" opacity="0.5"/>
    <rect x="70" y="75" width="35" height="3" rx="1.5" fill="white" opacity="0.3"/>
  </g>
</svg>