<svg xmlns="http://www.w3.org/2000/svg" style="display: none;">
  <defs>
    <!-- Dashboard Icon -->
    <symbol id="icon-dashboard" viewBox="0 0 80 80">
      <rect x="10" y="10" width="60" height="60" rx="8" fill="none" stroke="currentColor" stroke-width="2"/>
      <rect x="20" y="20" width="15" height="15" rx="2" fill="currentColor"/>
      <rect x="40" y="20" width="20" height="15" rx="2" fill="currentColor" opacity="0.7"/>
      <rect x="20" y="40" width="25" height="15" rx="2" fill="currentColor" opacity="0.5"/>
      <rect x="50" y="40" width="10" height="15" rx="2" fill="currentColor" opacity="0.3"/>
      <rect x="20" y="60" width="40" height="3" rx="1.5" fill="currentColor" opacity="0.2"/>
    </symbol>

    <!-- Add Entry Icon -->
    <symbol id="icon-add" viewBox="0 0 80 80">
      <circle cx="40" cy="40" r="30" fill="none" stroke="currentColor" stroke-width="2"/>
      <line x1="40" y1="25" x2="40" y2="55" stroke="currentColor" stroke-width="3" stroke-linecap="round"/>
      <line x1="25" y1="40" x2="55" y2="40" stroke="currentColor" stroke-width="3" stroke-linecap="round"/>
    </symbol>

    <!-- Charts Icon -->
    <symbol id="icon-charts" viewBox="0 0 80 80">
      <rect x="10" y="10" width="60" height="60" rx="8" fill="none" stroke="currentColor" stroke-width="2"/>
      <polyline points="20,55 30,45 40,35 50,25 60,20" fill="none" stroke="currentColor" stroke-width="3" stroke-linecap="round" stroke-linejoin="round"/>
      <circle cx="20" cy="55" r="2" fill="currentColor"/>
      <circle cx="30" cy="45" r="2" fill="currentColor"/>
      <circle cx="40" cy="35" r="2" fill="currentColor"/>
      <circle cx="50" cy="25" r="2" fill="currentColor"/>
      <circle cx="60" cy="20" r="2" fill="currentColor"/>
    </symbol>

    <!-- Profile Icon -->
    <symbol id="icon-profile" viewBox="0 0 80 80">
      <circle cx="40" cy="30" r="10" fill="none" stroke="currentColor" stroke-width="2"/>
      <path d="M20 60 Q20 45 40 45 Q60 45 60 60" fill="none" stroke="currentColor" stroke-width="2"/>
    </symbol>

    <!-- Scale Icon -->
    <symbol id="icon-scale" viewBox="0 0 80 80">
      <rect x="15" y="45" width="50" height="20" rx="10" fill="none" stroke="currentColor" stroke-width="2"/>
      <rect x="20" y="20" width="40" height="25" rx="4" fill="none" stroke="currentColor" stroke-width="2"/>
      <text x="40" y="37" text-anchor="middle" font-family="system-ui, sans-serif" font-size="10" fill="currentColor">kg</text>
    </symbol>

    <!-- Weight Icon -->
    <symbol id="icon-weight" viewBox="0 0 80 80">
      <circle cx="40" cy="35" r="20" fill="none" stroke="currentColor" stroke-width="2"/>
      <rect x="35" y="55" width="10" height="8" fill="currentColor"/>
      <path d="M30 25 L30 45 L50 45 L50 25 M35 30 L35 40 M40 30 L40 40 M45 30 L45 40" stroke="currentColor" stroke-width="1.5" fill="none"/>
    </symbol>

    <!-- Body Fat Icon -->
    <symbol id="icon-bodyfat" viewBox="0 0 80 80">
      <circle cx="40" cy="40" r="25" fill="none" stroke="currentColor" stroke-width="2"/>
      <circle cx="40" cy="40" r="15" fill="currentColor" opacity="0.3"/>
      <text x="40" y="46" text-anchor="middle" font-family="system-ui, sans-serif" font-size="10" font-weight="600" fill="currentColor">%</text>
    </symbol>

    <!-- Muscle Icon -->
    <symbol id="icon-muscle" viewBox="0 0 80 80">
      <path d="M25 25 Q40 15 55 25 Q50 40 40 40 Q30 40 25 25" fill="none" stroke="currentColor" stroke-width="2"/>
      <path d="M30 45 Q40 35 50 45 Q45 55 40 55 Q35 55 30 45" fill="none" stroke="currentColor" stroke-width="2"/>
    </symbol>

    <!-- Water Icon -->
    <symbol id="icon-water" viewBox="0 0 80 80">
      <path d="M40 15 Q50 25 50 35 Q50 50 40 50 Q30 50 30 35 Q30 25 40 15" fill="none" stroke="currentColor" stroke-width="2"/>
      <circle cx="35" cy="35" r="2" fill="currentColor" opacity="0.6"/>
      <circle cx="42" cy="30" r="1.5" fill="currentColor" opacity="0.4"/>
    </symbol>

    <!-- Export Icon -->
    <symbol id="icon-export" viewBox="0 0 80 80">
      <rect x="20" y="20" width="40" height="50" rx="4" fill="none" stroke="currentColor" stroke-width="2"/>
      <line x1="30" y1="30" x2="50" y2="30" stroke="currentColor" stroke-width="1"/>
      <line x1="30" y1="40" x2="45" y2="40" stroke="currentColor" stroke-width="1"/>
      <line x1="30" y1="50" x2="50" y2="50" stroke="currentColor" stroke-width="1"/>
      <path d="M40 15 L35 25 L45 25 Z" fill="currentColor"/>
    </symbol>

    <!-- Import Icon -->
    <symbol id="icon-import" viewBox="0 0 80 80">
      <rect x="20" y="20" width="40" height="50" rx="4" fill="none" stroke="currentColor" stroke-width="2"/>
      <line x1="30" y1="30" x2="50" y2="30" stroke="currentColor" stroke-width="1"/>
      <line x1="30" y1="40" x2="45" y2="40" stroke="currentColor" stroke-width="1"/>
      <line x1="30" y1="50" x2="50" y2="50" stroke="currentColor" stroke-width="1"/>
      <path d="M40 65 L35 55 L45 55 Z" fill="currentColor"/>
    </symbol>

    <!-- Settings Icon -->
    <symbol id="icon-settings" viewBox="0 0 80 80">
      <circle cx="40" cy="40" r="25" fill="none" stroke="currentColor" stroke-width="2"/>
      <circle cx="40" cy="40" r="8" fill="none" stroke="currentColor" stroke-width="2"/>
      <line x1="40" y1="15" x2="40" y2="25" stroke="currentColor" stroke-width="2"/>
      <line x1="40" y1="55" x2="40" y2="65" stroke="currentColor" stroke-width="2"/>
      <line x1="55" y1="32" x2="62" y2="25" stroke="currentColor" stroke-width="2"/>
      <line x1="18" y1="55" x2="25" y2="48" stroke="currentColor" stroke-width="2"/>
    </symbol>

    <!-- Delete Icon -->
    <symbol id="icon-delete" viewBox="0 0 80 80">
      <rect x="25" y="25" width="30" height="35" rx="3" fill="none" stroke="currentColor" stroke-width="2"/>
      <line x1="20" y1="25" x2="60" y2="25" stroke="currentColor" stroke-width="2"/>
      <line x1="35" y1="20" x2="45" y2="20" stroke="currentColor" stroke-width="2"/>
      <line x1="35" y1="35" x2="35" y2="50" stroke="currentColor" stroke-width="1"/>
      <line x1="45" y1="35" x2="45" y2="50" stroke="currentColor" stroke-width="1"/>
    </symbol>

    <!-- Trend Up Icon -->
    <symbol id="icon-trend-up" viewBox="0 0 80 80">
      <polyline points="15,55 25,45 35,40 45,30 55,20 65,15" fill="none" stroke="currentColor" stroke-width="3" stroke-linecap="round"/>
      <path d="M60 15 L55 25 L65 25 Z" fill="currentColor"/>
    </symbol>

    <!-- Target/Goal Icon -->
    <symbol id="icon-target" viewBox="0 0 80 80">
      <circle cx="40" cy="40" r="25" fill="none" stroke="currentColor" stroke-width="2"/>
      <circle cx="40" cy="40" r="15" fill="none" stroke="currentColor" stroke-width="2"/>
      <circle cx="40" cy="40" r="5" fill="currentColor"/>
    </symbol>

    <!-- Notification Icon -->
    <symbol id="icon-notification" viewBox="0 0 80 80">
      <path d="M40 15 Q48 15 48 25 L48 40 Q48 50 55 50 L25 50 Q32 50 32 40 L32 25 Q32 15 40 15" fill="none" stroke="currentColor" stroke-width="2"/>
      <path d="M36 55 Q36 60 40 60 Q44 60 44 55" fill="none" stroke="currentColor" stroke-width="2"/>
      <circle cx="52" cy="20" r="4" fill="#ef4444"/>
    </symbol>

    <!-- Calendar Icon -->
    <symbol id="icon-calendar" viewBox="0 0 80 80">
      <rect x="15" y="20" width="50" height="45" rx="4" fill="none" stroke="currentColor" stroke-width="2"/>
      <line x1="25" y1="15" x2="25" y2="25" stroke="currentColor" stroke-width="2"/>
      <line x1="55" y1="15" x2="55" y2="25" stroke="currentColor" stroke-width="2"/>
      <line x1="15" y1="30" x2="65" y2="30" stroke="currentColor" stroke-width="1"/>
      <circle cx="30" cy="40" r="2" fill="currentColor"/>
      <circle cx="40" cy="40" r="2" fill="currentColor"/>
      <circle cx="50" cy="40" r="2" fill="currentColor"/>
    </symbol>
  </defs>
</svg>